HIERARCHY
ROOT Hips
{
	OFFSET -3.958830 18.904000 13.208200
	CHANNELS 6 Xposition Yposition Zposition Zrotation Yrotation Xrotation 
	JOINT LHipJoint
	{
		OFFSET 0.000000 0.000000 0.000000
		CHANNELS 3 Zrotation Yrotation Xrotation
		JOINT LeftUpLeg
		{
			OFFSET 1.800000 -1.400000 0.085000
			CHANNELS 3 Zrotation Yrotation Xrotation
			JOINT LeftLeg
			{
				OFFSET 2.215000 -6.000000 0.000000
				CHANNELS 3 Zrotation Yrotation Xrotation
				JOINT LeftFoot
				{
					OFFSET 2.500000 -6.900000 0.000000
					CHANNELS 3 Zrotation Yrotation Xrotation
					JOINT LeftToeBase
					{
						OFFSET 0.200000 -0.500000 1.950000
						CHANNELS 3 Zrotation Yrotation Xrotation
						End Site
						{
							OFFSET 0.000000 0.000000 0.000000
						}
					}
				}
			}
		}
	}
	JOINT RHipJoint
	{
		OFFSET 0.000000 0.000000 0.000000
		CHANNELS 3 Zrotation Yrotation Xrotation
		JOINT RightUpLeg
		{
			OFFSET -1.800000 -1.400000 0.085000
			CHANNELS 3 Zrotation Yrotation Xrotation
			JOINT RightLeg
			{
				OFFSET -2.215000 -6.000000 0.000000
				CHANNELS 3 Zrotation Yrotation Xrotation
				JOINT RightFoot
				{
					OFFSET -2.500000 -6.900000 0.000000
					CHANNELS 3 Zrotation Yrotation Xrotation
					JOINT RightToeBase
					{
						OFFSET -0.200000 -0.500000 1.950000
						CHANNELS 3 Zrotation Yrotation Xrotation
						End Site
						{
							OFFSET 0.000000 0.000000 0.000000
						}
					}
				}
			}
		}
	}
	JOINT LowerBack
	{
		OFFSET 0.000000 0.000000 0.000000
		CHANNELS 3 Zrotation Yrotation Xrotation
		JOINT Spine
		{
			OFFSET -0.087000 1.940000 -0.288900
			CHANNELS 3 Zrotation Yrotation Xrotation
			JOINT Spine1
			{
				OFFSET 0.000000 1.950000 0.060000
				CHANNELS 3 Zrotation Yrotation Xrotation
				JOINT Neck
				{
					OFFSET 0.000000 0.000000 0.000000
					CHANNELS 3 Zrotation Yrotation Xrotation
					JOINT Neck1
					{
						OFFSET 0.000000 1.600000 0.340000
						CHANNELS 3 Zrotation Yrotation Xrotation
						JOINT Head
						{
							OFFSET 0.000000 1.667000 -0.240000
							CHANNELS 3 Zrotation Yrotation Xrotation
							End Site
							{
								OFFSET 0.000000 0.000000 0.000000
							}
						}
					}
				}
				JOINT LeftShoulder
				{
					OFFSET 0.000000 0.000000 0.000000
					CHANNELS 3 Zrotation Yrotation Xrotation
					JOINT LeftArm
					{
						OFFSET 2.700000 1.550000 -0.730000
						CHANNELS 3 Zrotation Yrotation Xrotation
						JOINT LeftForeArm
						{
							OFFSET 5.450000 0.000000 0.000000
							CHANNELS 3 Zrotation Yrotation Xrotation
							JOINT LeftHand
							{
								OFFSET 3.450000 0.000000 0.000000
								CHANNELS 3 Zrotation Yrotation Xrotation
								JOINT LeftHandIndex1
								{
									OFFSET 0.750000 0.000000 0.000000
									CHANNELS 3 Zrotation Yrotation Xrotation
									End Site
									{
										OFFSET 0.000000 0.000000 0.000000
									}
								}
							}
						}
					}
				}
				JOINT RightShoulder
				{
					OFFSET 0.000000 0.000000 0.000000
					CHANNELS 3 Zrotation Yrotation Xrotation
					JOINT RightArm
					{
						OFFSET -2.700000 1.550000 -0.730000
						CHANNELS 3 Zrotation Yrotation Xrotation
						JOINT RightForeArm
						{
							OFFSET -5.450000 0.000000 0.000000
							CHANNELS 3 Zrotation Yrotation Xrotation
							JOINT RightHand
							{
								OFFSET -3.450000 0.000000 0.000000
								CHANNELS 3 Zrotation Yrotation Xrotation
								JOINT RightHandIndex1
								{
									OFFSET -0.750000 0.000000 0.000000
									CHANNELS 3 Zrotation Yrotation Xrotation
									End Site
									{
										OFFSET 0.000000 0.000000 0.000000
									}
								}
							}
						}
					}
				}
			}
		}
	}
}
MOTION
Frames: 9
Frame Time: 0.016667
-0.000290 17.148070 -2.120150 -5.474990 -4.740772 11.485185 -15.197790 14.555098 4.078465 1.678459 -2.413830 -17.225300 -9.286811 4.038916 3.510882 0.270700 2.694572 3.540739 0.470310 0.498280 0.515700 17.854209 -9.989905 3.645132 2.373949 2.442562 -15.542699 7.965202 -2.697368 4.053788 -0.188154 -2.016616 3.497721 0.054830 -0.173190 0.230650 -2.824945 -5.159839 -9.349917 17.804147 -2.390528 9.678918 -6.887065 4.386232 -33.463342 4.765864 -2.344932 -16.130100 -12.886211 5.642494 65.896898 -3.433050 1.086750 11.610590 3.055943 2.588561 2.747113 -23.651479 -9.628992 5.451190 122.170788 11.550531 32.528951 -3.597491 3.735869 0.111810 -0.131200 0.428880 0.150600 -9.510991 5.432427 8.045195 30.950067 -5.006375 -5.484024 -128.983062 -7.425447 26.626640 3.289627 -2.831505 0.295120 -0.188700 -0.463380 0.200280 
-0.004840 17.143220 -2.125720 -5.391930 -4.853175 11.655863 -15.205284 14.524254 4.091121 1.627378 -2.489747 -17.477765 -9.366934 4.034854 3.520283 0.253342 2.694427 3.538612 0.448730 0.455370 0.519660 17.845346 -10.010110 3.642034 2.362114 2.537246 -15.981252 8.114124 -2.770665 4.553753 -0.167208 -2.010813 3.493914 0.036420 -0.180710 0.228570 -2.794934 -5.080596 -9.372792 17.213665 -2.180267 9.894200 -6.576994 4.430901 -33.446255 5.017833 -2.209398 -16.052384 -12.425019 5.166478 65.201042 -4.482730 1.404150 12.232880 2.882464 3.211352 2.595390 -23.430792 -8.959935 5.524632 121.846864 10.000280 29.916850 -3.589689 3.722394 0.117720 -0.128150 0.413700 0.130270 -9.782256 4.831402 8.099979 31.237895 -5.828572 -5.552615 -128.950110 -5.723818 23.257153 3.262105 -2.831603 0.281710 -0.203310 -0.449390 0.181800 
-0.009790 17.144190 -2.148750 -5.307014 -4.886892 10.900003 -15.224482 14.506455 4.077357 1.940389 -2.489707 -17.177099 -9.835048 4.213924 4.069037 0.249986 2.766799 3.494760 0.477110 0.463680 0.567890 17.823804 -10.062222 3.613910 2.290185 2.427593 -15.657994 8.077250 -2.878508 5.106744 -0.187097 -2.030888 3.470614 0.040040 -0.224290 0.226790 -2.729767 -4.975585 -9.353062 16.157364 -2.386760 10.995316 -5.636769 4.341654 -32.985959 4.980358 -2.166791 -15.779604 -12.099629 5.144194 65.654559 -4.492670 1.573270 11.625090 1.663188 4.000830 2.139568 -21.427225 -7.985929 5.683218 121.773085 7.301416 25.882282 -3.525520 3.707817 0.149880 -0.157960 0.431860 0.111180 -8.575343 3.916665 8.401822 29.723254 -6.797028 -4.753014 -128.902878 -1.600102 14.245616 3.154370 -2.801723 0.285350 -0.218060 -0.459540 0.154480 
-0.011850 17.156950 -2.193650 -5.367872 -4.047114 9.453064 -15.254589 14.544867 4.015293 2.423523 -2.408710 -16.747808 -9.852168 4.406982 4.918866 0.216061 2.835303 3.457432 0.494130 0.465920 0.598410 17.804815 -10.071880 3.565275 2.459821 2.133679 -14.633482 7.834438 -3.006694 5.505869 -0.226662 -2.065287 3.456893 0.046770 -0.262890 0.198960 -2.680244 -5.052703 -9.247733 15.585243 -3.146743 13.018959 -5.049411 3.968598 -31.869776 4.940249 -2.166731 -15.638583 -12.225312 5.722174 65.964519 -3.428500 1.721350 10.358660 0.570670 4.792932 1.925901 -18.908542 -6.542708 5.812487 120.760573 2.664643 17.869188 -3.428112 3.604721 0.227170 -0.203740 0.461740 0.102350 -7.410776 2.697502 8.838339 28.104666 -9.297001 -4.138368 -128.685512 5.137593 -0.427585 2.997898 -2.684776 0.254430 -0.197560 -0.467260 0.119130 
-0.011950 17.184270 -2.254330 -5.147641 -3.248835 7.306803 -15.325434 14.663219 3.949869 2.636203 -2.211567 -15.674228 -9.729618 4.649117 5.846648 0.242813 2.892556 3.412419 0.513620 0.466090 0.652800 17.741655 -10.079817 3.478224 2.381527 1.738752 -13.363796 7.388853 -3.215030 6.535144 -0.280015 -2.090087 3.441231 0.019720 -0.355420 0.179730 -2.510920 -5.289148 -9.116344 14.160934 -4.024846 16.574433 -4.118643 3.472801 -31.042367 5.469546 -2.309226 -15.765780 -13.002187 6.174933 66.394974 -3.976120 2.089020 8.059910 -0.547444 5.886818 1.675187 -15.525694 -3.836462 5.958491 119.398244 -4.660898 6.153225 -3.288501 3.465915 0.303390 -0.285880 0.521800 0.074240 -6.970246 1.657542 9.770330 25.554432 -12.895684 -3.272796 -127.532703 14.751079 -20.067939 2.886586 -2.457619 0.266500 -0.210350 -0.485500 0.086590 
0.000620 17.224030 -2.347700 -5.491259 -3.578676 3.726332 -15.378160 14.826735 3.793517 3.379353 -1.730321 -13.641951 -9.061302 4.992438 7.331584 0.353517 2.965649 3.352233 0.547230 0.491150 0.719050 17.706385 -10.106189 3.369953 2.457862 1.204207 -11.217849 6.831228 -3.563445 8.299466 -0.365428 -2.211584 3.378810 -0.022730 -0.494710 0.176570 -2.379502 -5.521156 -8.877559 13.140206 -4.831862 22.987792 -3.943479 3.228016 -29.840256 6.027399 -1.993771 -15.993338 -12.064681 5.795584 66.329426 -4.558190 2.668230 4.760800 -0.966881 6.535909 1.377234 -12.055972 -0.112317 5.259036 120.235703 -12.269166 -6.158657 -3.116782 3.408411 0.356020 -0.394700 0.608280 0.049200 -7.611696 1.234525 11.219247 23.972100 -16.130400 -2.604189 -126.722308 25.948095 -42.186810 2.871145 -2.201635 0.327480 -0.282340 -0.539470 0.070680 
0.021840 17.284320 -2.492520 -5.952194 -4.225719 -1.557102 -15.414395 15.018139 3.574177 4.508244 -1.023085 -10.505717 -8.127125 5.548314 9.723069 0.432187 3.292295 3.236290 0.469110 0.371950 0.700230 17.701758 -10.141353 3.216924 2.356690 0.760803 -8.671634 6.073912 -4.193794 11.736346 -0.414562 -2.504853 3.273814 -0.121580 -0.547950 0.171260 -2.312697 -5.752245 -8.571911 11.752619 -5.232080 33.010379 -3.747924 3.117433 -27.932256 6.366055 -1.861537 -15.661975 -11.448168 4.905960 63.509820 -5.746020 2.936030 0.332260 -1.359518 6.588541 1.434020 -9.212545 4.523581 3.892246 124.309502 -19.293412 -21.481323 -3.039712 3.303809 0.413560 -0.455230 0.611950 -0.016330 -8.070149 1.236606 11.846219 21.445109 -19.583847 -3.490663 -124.693582 35.335652 -58.045169 2.892573 -1.922013 0.323420 -0.318360 -0.488070 0.037480 
0.044450 17.326890 -2.705090 -6.471074 -4.215061 -10.318060 -15.447440 15.183834 3.303031 6.562047 0.053384 -4.998796 -7.021796 6.460719 13.196713 0.641412 4.002646 3.059981 0.339930 0.198780 0.642670 17.721036 -10.188452 3.062199 2.284461 0.186449 -4.053250 4.716183 -5.208004 17.311105 -0.515944 -3.238435 3.054138 -0.262190 -0.525550 0.203640 -2.303993 -5.864980 -8.313381 10.255822 -5.455010 46.921611 -4.208923 2.809702 -20.995423 6.789048 -1.044782 -14.591490 -8.360234 1.235929 55.027730 -8.872760 2.943070 -6.368250 -3.430829 3.952472 1.642070 -5.725656 9.755426 0.656226 131.168306 -24.042474 -41.649821 -3.055416 3.256705 0.405530 -0.456050 0.575790 -0.059810 -8.029047 2.869936 12.010168 19.144698 -24.227495 -7.035678 -122.068792 43.290787 -71.977424 2.949594 -1.706364 0.325760 -0.351950 -0.427930 0.039990 
0.045040 17.354690 -2.921190 -5.995407 -3.134796 -18.362512 -15.517214 15.241896 3.180942 7.386803 0.985661 0.674345 -5.619903 6.950833 14.750559 0.823772 4.539481 2.976529 0.252490 0.108990 0.612070 17.709633 -10.245632 2.835162 1.369907 0.352805 -1.943016 3.538691 -6.388347 25.468906 -0.637692 -4.167841 2.780585 -0.321510 -0.503900 0.183180 -2.231562 -5.824723 -8.064540 7.736735 -4.511191 56.241529 -2.804658 1.858045 -6.624966 6.427230 0.156967 -13.898883 -4.271846 -2.236107 44.369926 -11.334100 3.789410 -14.311770 -4.079802 -1.243597 3.526836 -4.934304 15.704541 -4.246124 137.452062 -25.828735 -63.439375 -3.094943 3.282581 0.391650 -0.445650 0.538710 -0.069520 -8.172948 5.415557 11.276104 20.176355 -28.153437 -13.168357 -119.076363 47.005920 -80.071558 2.964754 -1.670487 0.284070 -0.342240 -0.424210 0.029860 
